# xmcd CD database file
#
# Track frame offsets:
#	150
#	33520
#	62595
#	80614
#	96263
#	124833
#	155350
#	177915
#
# Disc length: 2841 seconds
#
# Revision: 0
# Processed by: cddbd v1.5.1PL2 Copyright (c) Steve Scherf et al.
# Submitted via: CDex 1.51
#
DISCID=620b1708
DTITLE=Joana Machado - Cru
DYEAR=2006
DGENRE=Jazz
TTITLE0='Round Midnight
TTITLE1=Ginga Carioca
TTITLE2=Day Dream
TTITLE3=Tema da Joana
TTITLE4=Contemplation
TTITLE5=When Sunny Gets Blue
TTITLE6=Ana Luiza
TTITLE7=Roda Dentada
EXTD=YEAR: 2006
EXTT0=
EXTT1=
EXTT2=
EXTT3=
EXTT4=
EXTT5=
EXTT6=
EXTT7=
PLAYORDER=
